<svg viewBox="0 0 800 500" xmlns="http://www.w3.org/2000/svg">
  <defs>
    <linearGradient id="bg" x1="0" y1="0" x2="1" y2="1">
      <stop offset="0%" stop-color="#12151c"/>
      <stop offset="100%" stop-color="#0a0c11"/>
    </linearGradient>
  </defs>
  <rect width="800" height="500" fill="url(#bg)"/>

  <!-- folder tree lines -->
  <g font-family="JetBrains Mono, monospace" font-size="20" fill="#8b92a3">
    <text x="60" y="90" fill="#e8a33d">src/</text>
    <text x="90" y="128">├── ArrayList/</text>
    <text x="90" y="160">├── HashMap/</text>
    <text x="90" y="192">├── Recursion/</text>
    <text x="90" y="224">├── Sorting/</text>
    <text x="90" y="256">├── BinarySearch/</text>
    <text x="90" y="288">├── LinkedList/</text>
    <text x="90" y="320">└── String/</text>
  </g>

  <!-- accent code block on the right -->
  <rect x="470" y="70" width="270" height="270" rx="10" fill="#0f1218" stroke="#232833" stroke-width="1.5"/>
  <circle cx="497" cy="96" r="5" fill="#ef5350"/>
  <circle cx="515" cy="96" r="5" fill="#e8a33d"/>
  <circle cx="533" cy="96" r="5" fill="#4fd1c5"/>

  <g font-family="JetBrains Mono, monospace" font-size="15">
    <text x="490" y="135" fill="#565d6d">1</text>
    <text x="515" y="135" fill="#4fd1c5">public</text>
    <text x="565" y="135" fill="#edeff2">class</text>
    <text x="605" y="135" fill="#e8a33d">Solution</text>
    <text x="490" y="160" fill="#565d6d">2</text>
    <text x="515" y="160" fill="#edeff2">{</text>
    <text x="490" y="185" fill="#565d6d">3</text>
    <text x="530" y="185" fill="#4fd1c5">int</text>
    <text x="565" y="185" fill="#edeff2">[] twoSum(</text>
    <text x="490" y="210" fill="#565d6d">4</text>
    <text x="530" y="210" fill="#8b92a3">// O(n) approach</text>
    <text x="490" y="235" fill="#565d6d">5</text>
    <text x="530" y="235" fill="#4fd1c5">Map</text>
    <text x="575" y="235" fill="#edeff2">seen =</text>
    <text x="490" y="260" fill="#565d6d">6</text>
    <text x="530" y="260" fill="#e8a33d">new</text>
    <text x="565" y="260" fill="#edeff2">HashMap&lt;&gt;();</text>
    <text x="490" y="285" fill="#565d6d">7</text>
    <text x="515" y="285" fill="#edeff2">}</text>
  </g>

  <text x="60" y="420" font-family="Space Grotesk, sans-serif" font-size="34" font-weight="600" fill="#edeff2">Daily DSA</text>
  <text x="60" y="452" font-family="JetBrains Mono, monospace" font-size="15" fill="#e8a33d">// 16+ topics · Java</text>
</svg>
